<!DOCTYPE svg PUBLIC "-//W3C//DTD SVG 1.1//EN" "http://www.w3.org/Graphics/SVG/1.1/DTD/svg11.dtd">
<svg xmlns="http://www.w3.org/2000/svg" xmlns:xlink="http://www.w3.org/1999/xlink" width="110px" height="394px" version="1.1" style="background-color: rgb(255, 255, 255);"><defs/><g transform="translate(0.5,0.5)"><path d="M 43.2 372 L 49.53 372 C 49.76 372 49.95 371.82 49.95 371.6 L 49.95 370.4 L 52.45 370.4 L 52.45 371.6 C 52.45 371.82 52.64 372 52.87 372 L 59.2 372 L 57.03 368.8 L 59.2 365.6 L 54.95 365.6 L 54.95 364.4 C 54.95 364.18 54.76 364 54.53 364 L 47.87 364 C 47.64 364 47.45 364.18 47.45 364.4 L 47.45 365.6 L 43.2 365.6 L 45.37 368.8 Z" fill="#ffffff" stroke="#000000" stroke-width="1.6" stroke-miterlimit="10" transform="rotate(30,51.2,368)" pointer-events="none"/><path d="M 49.95 371.6 C 49.95 371.38 49.76 371.2 49.53 371.2 L 47.87 371.2 C 47.64 371.2 47.45 371.02 47.45 370.8 C 47.45 370.58 47.64 370.4 47.87 370.4 L 54.53 370.4 C 54.76 370.4 54.95 370.58 54.95 370.8 C 54.95 371.02 54.76 371.2 54.53 371.2 L 52.87 371.2 C 52.64 371.2 52.45 371.38 52.45 371.6 M 47.45 370.8 L 47.45 365.6 M 54.95 370.8 L 54.95 365.6" fill="none" stroke="#000000" stroke-width="1.6" stroke-miterlimit="10" transform="rotate(30,51.2,368)" pointer-events="none"/><path d="M 52 388 L 58.33 388 C 58.56 388 58.75 387.82 58.75 387.6 L 58.75 386.4 L 61.25 386.4 L 61.25 387.6 C 61.25 387.82 61.44 388 61.67 388 L 68 388 L 65.83 384.8 L 68 381.6 L 63.75 381.6 L 63.75 380.4 C 63.75 380.18 63.56 380 63.33 380 L 56.67 380 C 56.44 380 56.25 380.18 56.25 380.4 L 56.25 381.6 L 52 381.6 L 54.17 384.8 Z" fill="#ffffff" stroke="#000000" stroke-width="1.6" stroke-miterlimit="10" transform="rotate(30,60,384)" pointer-events="none"/><path d="M 58.75 387.6 C 58.75 387.38 58.56 387.2 58.33 387.2 L 56.67 387.2 C 56.44 387.2 56.25 387.02 56.25 386.8 C 56.25 386.58 56.44 386.4 56.67 386.4 L 63.33 386.4 C 63.56 386.4 63.75 386.58 63.75 386.8 C 63.75 387.02 63.56 387.2 63.33 387.2 L 61.67 387.2 C 61.44 387.2 61.25 387.38 61.25 387.6 M 56.25 386.8 L 56.25 381.6 M 63.75 386.8 L 63.75 381.6" fill="none" stroke="#000000" stroke-width="1.6" stroke-miterlimit="10" transform="rotate(30,60,384)" pointer-events="none"/><path d="M 0.8 137.6 L 88.8 137.6 L 104.8 153.6 L 104.8 257.6 L 16.8 257.6 L 0.8 241.6 L 0.8 137.6 Z" fill="#ffffff" stroke="#000000" stroke-miterlimit="10" pointer-events="none"/><path d="M 16.8 257.6 L 16.8 153.6 L 0.8 137.6 M 16.8 153.6 L 104.8 153.6" fill="none" stroke="#000000" stroke-miterlimit="10" pointer-events="none"/><path d="M 17.6 151.2 L 28.42 140 L 89.6 140 L 78.78 151.2 Z" fill="#707070" stroke="#000000" stroke-width="1.6" stroke-miterlimit="10" transform="translate(53.6,0)scale(-1,1)translate(-53.6,0)" pointer-events="none"/><path d="M 3.2 288 C 3.2 273.07 107.2 273.07 107.2 288 L 107.2 353.6 C 107.2 368.53 3.2 368.53 3.2 353.6 Z" fill="#ffffff" stroke="#000000" stroke-miterlimit="10" pointer-events="none"/><path d="M 3.2 288 C 3.2 299.2 107.2 299.2 107.2 288 M 3.2 293.6 C 3.2 304.8 107.2 304.8 107.2 293.6 M 3.2 299.2 C 3.2 310.4 107.2 310.4 107.2 299.2" fill="none" stroke="#000000" stroke-miterlimit="10" pointer-events="none"/><path d="M 50.4 28 L 90.4 100.64 C 90.4 104.71 72.49 108 50.4 108 C 28.31 108 10.4 104.71 10.4 100.64 Z" fill="#ffffff" stroke="#000000" stroke-width="1.6" stroke-miterlimit="10" transform="rotate(-180,50.4,68)" pointer-events="none"/><path d="M 10.4 100.64 C 10.4 96.58 28.31 93.29 50.4 93.29 C 72.49 93.29 90.4 96.58 90.4 100.64" fill="#ffffff" stroke="#000000" stroke-width="1.6" stroke-miterlimit="10" transform="rotate(-180,50.4,68)" pointer-events="none"/><path d="M 49.6 274.4 L 53.6 272.09 L 57.6 274.4 L 57.6 278.4 L 53.6 280.71 L 49.6 278.4 Z" fill="#ffffff" stroke="#000000" stroke-miterlimit="10" pointer-events="none"/><path d="M 49.6 274.4 L 53.6 276.71 L 57.6 274.4 M 53.6 276.71 L 53.6 280.71" fill="none" stroke="#000000" stroke-miterlimit="10" pointer-events="none"/><path d="M 47.2 289.6 L 51.2 287.29 L 55.2 289.6 L 55.2 293.6 L 51.2 295.91 L 47.2 293.6 Z" fill="#ffffff" stroke="#000000" stroke-miterlimit="10" pointer-events="none"/><path d="M 47.2 289.6 L 51.2 291.91 L 55.2 289.6 M 51.2 291.91 L 51.2 295.91" fill="none" stroke="#000000" stroke-miterlimit="10" pointer-events="none"/><path d="M 33.6 126.4 L 65.6 126.4 L 70.4 131.2 L 70.4 150.4 L 38.4 150.4 L 33.6 145.6 L 33.6 126.4 Z" fill="#ffffff" stroke="#000000" stroke-miterlimit="10" pointer-events="none"/><path d="M 38.4 150.4 L 38.4 131.2 L 33.6 126.4 M 38.4 131.2 L 70.4 131.2" fill="none" stroke="#000000" stroke-miterlimit="10" pointer-events="none"/><path d="M 45.6 125.6 L 48.8 121.41 L 46.08 118.48 L 48.8 115.97 L 46.08 112.2 L 51.04 105.6 L 55.2 110.94 L 51.36 113.87 L 53.6 116.8 L 50.24 119.32 L 52.32 121.62 Z" fill="#ffffff" stroke="#000000" stroke-width="1.6" stroke-miterlimit="6" transform="translate(0,115.6)scale(1,-1)translate(0,-115.6)rotate(-20,50.4,115.6)" pointer-events="none"/><path d="M 24.17 28.69 C 23.46 29.46 22.67 28.77 22.22 26.99 C 21.77 25.22 21.77 22.78 22.22 21 C 22.67 19.22 23.46 18.53 24.17 19.31 C 24.16 16.18 24.82 13.37 25.81 12.25 C 26.8 11.14 27.93 11.96 28.63 14.3 C 29.08 10.98 30.17 8.8 31.39 8.8 C 32.61 8.8 33.7 10.98 34.15 14.3 C 34.87 12.39 35.9 11.85 36.8 12.91 C 37.71 13.97 38.32 16.45 38.4 19.31 C 39.1 18.53 39.9 19.22 40.35 21 C 40.8 22.78 40.8 25.22 40.35 26.99 C 39.9 28.77 39.1 29.46 38.4 28.69 C 38.32 31.7 37.64 34.29 36.66 35.25 C 35.69 36.2 34.61 35.34 33.94 33.07 C 33.4 35.7 32.43 37.31 31.39 37.31 C 30.35 37.31 29.38 35.7 28.84 33.07 C 28.33 36.11 26.87 37.59 25.58 36.38 C 24.29 35.17 23.66 31.73 24.17 28.69 Z" fill="#ffffff" stroke="#000000" stroke-width="1.6" stroke-linejoin="round" stroke-miterlimit="10" transform="rotate(-115,31.2,28)" pointer-events="none"/><ellipse cx="25" cy="39" rx="1.2741953323747373" ry="1.6885993485342021" fill="#ffffff" stroke="#000000" stroke-width="1.6" transform="rotate(-115,31.2,28)" pointer-events="none"/><ellipse cx="23" cy="43" rx="0.8069903771706669" ry="1.1257328990228013" fill="#ffffff" stroke="#000000" stroke-width="1.6" transform="rotate(-115,31.2,28)" pointer-events="none"/><ellipse cx="22" cy="46" rx="0.509678132949895" ry="0.8130293159609121" fill="#ffffff" stroke="#000000" stroke-width="1.6" transform="rotate(-115,31.2,28)" pointer-events="none"/><path d="M 34.36 26.53 C 33.27 27.13 32.05 26.59 31.35 25.22 C 30.66 23.85 30.66 21.97 31.35 20.61 C 32.05 19.24 33.27 18.7 34.36 19.3 C 34.35 16.89 35.36 14.72 36.89 13.86 C 38.42 13 40.15 13.63 41.24 15.44 C 41.93 12.88 43.62 11.2 45.49 11.2 C 47.37 11.2 49.05 12.88 49.75 15.44 C 50.86 13.97 52.45 13.55 53.84 14.37 C 55.23 15.19 56.18 17.1 56.3 19.3 C 57.39 18.7 58.61 19.24 59.31 20.61 C 60 21.97 60 23.85 59.31 25.22 C 58.61 26.59 57.39 27.13 56.3 26.53 C 56.18 28.86 55.12 30.85 53.62 31.59 C 52.12 32.32 50.46 31.66 49.42 29.9 C 48.59 31.94 47.1 33.18 45.49 33.18 C 43.88 33.18 42.39 31.94 41.56 29.9 C 40.77 32.25 38.52 33.39 36.53 32.46 C 34.54 31.53 33.57 28.87 34.36 26.53 Z" fill="#ffffff" stroke="#000000" stroke-width="1.6" stroke-linejoin="round" stroke-miterlimit="10" transform="rotate(-115,45.2,26)" pointer-events="none"/><ellipse cx="35" cy="35" rx="1.964384470744387" ry="1.3016286644951143" fill="#ffffff" stroke="#000000" stroke-width="1.6" transform="rotate(-115,45.2,26)" pointer-events="none"/><ellipse cx="33" cy="38" rx="1.2441101648047783" ry="0.8677524429967427" fill="#ffffff" stroke="#000000" stroke-width="1.6" transform="rotate(-115,45.2,26)" pointer-events="none"/><ellipse cx="31" cy="40" rx="0.7857537882977548" ry="0.6267100977198699" fill="#ffffff" stroke="#000000" stroke-width="1.6" transform="rotate(-115,45.2,26)" pointer-events="none"/><path d="M 54.36 26.7 C 53.27 27.49 52.05 26.79 51.35 24.97 C 50.66 23.16 50.66 20.67 51.35 18.86 C 52.05 17.04 53.27 16.34 54.36 17.13 C 54.35 13.93 55.36 11.06 56.89 9.93 C 58.42 8.79 60.15 9.62 61.24 12.02 C 61.93 8.62 63.62 6.4 65.49 6.4 C 67.37 6.4 69.05 8.62 69.75 12.02 C 70.86 10.06 72.45 9.51 73.84 10.6 C 75.23 11.68 76.18 14.21 76.3 17.13 C 77.39 16.34 78.61 17.04 79.31 18.86 C 80 20.67 80 23.16 79.31 24.97 C 78.61 26.79 77.39 27.49 76.3 26.7 C 76.18 29.78 75.12 32.42 73.62 33.4 C 72.12 34.37 70.46 33.5 69.42 31.17 C 68.59 33.86 67.1 35.51 65.49 35.51 C 63.88 35.51 62.39 33.86 61.56 31.17 C 60.77 34.27 58.52 35.79 56.53 34.56 C 54.54 33.32 53.57 29.81 54.36 26.7 Z" fill="#ffffff" stroke="#000000" stroke-width="1.6" stroke-linejoin="round" stroke-miterlimit="10" transform="rotate(107,65.2,26)" pointer-events="none"/><ellipse cx="55" cy="38" rx="1.964384470744387" ry="1.7237785016286649" fill="#ffffff" stroke="#000000" stroke-width="1.6" transform="rotate(107,65.2,26)" pointer-events="none"/><ellipse cx="53" cy="42" rx="1.2441101648047783" ry="1.149185667752443" fill="#ffffff" stroke="#000000" stroke-width="1.6" transform="rotate(107,65.2,26)" pointer-events="none"/><ellipse cx="51" cy="45" rx="0.7857537882977548" ry="0.8299674267100978" fill="#ffffff" stroke="#000000" stroke-width="1.6" transform="rotate(107,65.2,26)" pointer-events="none"/><path d="M 37.4 23.36 C 36.14 23.99 34.72 23.43 33.91 21.98 C 33.1 20.54 33.1 18.56 33.91 17.11 C 34.72 15.67 36.14 15.11 37.4 15.74 C 37.39 13.19 38.57 10.91 40.34 10.01 C 42.12 9.1 44.14 9.77 45.39 11.67 C 46.2 8.97 48.16 7.2 50.34 7.2 C 52.52 7.2 54.48 8.97 55.29 11.67 C 56.58 10.11 58.42 9.68 60.04 10.54 C 61.66 11.4 62.76 13.42 62.9 15.74 C 64.16 15.11 65.59 15.67 66.39 17.11 C 67.2 18.56 67.2 20.54 66.39 21.98 C 65.59 23.43 64.16 23.99 62.9 23.36 C 62.76 25.81 61.53 27.91 59.79 28.69 C 58.04 29.46 56.12 28.77 54.91 26.92 C 53.94 29.06 52.21 30.37 50.34 30.37 C 48.47 30.37 46.74 29.06 45.77 26.92 C 44.86 29.39 42.24 30.59 39.92 29.61 C 37.61 28.63 36.48 25.83 37.4 23.36 Z" fill="#ffffff" stroke="#000000" stroke-width="1.6" stroke-linejoin="round" stroke-miterlimit="10" transform="rotate(107,50,22.8)" pointer-events="none"/><ellipse cx="39" cy="32" rx="2.282933303838071" ry="1.3719869706840395" fill="#ffffff" stroke="#000000" stroke-width="1.6" transform="rotate(107,50,22.8)" pointer-events="none"/><ellipse cx="36" cy="35" rx="1.445857759097445" ry="0.9146579804560262" fill="#ffffff" stroke="#000000" stroke-width="1.6" transform="rotate(107,50,22.8)" pointer-events="none"/><ellipse cx="34" cy="38" rx="0.9131733215352285" ry="0.6605863192182412" fill="#ffffff" stroke="#000000" stroke-width="1.6" transform="rotate(107,50,22.8)" pointer-events="none"/><path d="M 47.2 262.4 L 51.2 260.09 L 55.2 262.4 L 55.2 266.4 L 51.2 268.71 L 47.2 266.4 Z" fill="#ffffff" stroke="#000000" stroke-miterlimit="10" pointer-events="none"/><path d="M 47.2 262.4 L 51.2 264.71 L 55.2 262.4 M 51.2 264.71 L 51.2 268.71" fill="none" stroke="#000000" stroke-miterlimit="10" pointer-events="none"/></g></svg>