<!DOCTYPE svg PUBLIC "-//W3C//DTD SVG 1.1//EN" "http://www.w3.org/Graphics/SVG/1.1/DTD/svg11.dtd">
<svg xmlns="http://www.w3.org/2000/svg" xmlns:xlink="http://www.w3.org/1999/xlink" width="707px" height="215px" version="1.1" style="background-color: rgb(255, 255, 255);"><defs/><g transform="translate(0.5,0.5)"><rect x="475.2" y="157.5" width="229.5" height="13.5" fill="#ffffff" stroke="#666666" pointer-events="none"/><rect x="486" y="157.5" width="2.7" height="6.3" fill="none" stroke="#666666" pointer-events="none"/><rect x="486" y="163.8" width="2.7" height="7.02" fill="none" stroke="#666666" pointer-events="none"/><rect x="515.7" y="157.5" width="2.7" height="6.3" fill="none" stroke="#666666" pointer-events="none"/><rect x="515.7" y="163.8" width="2.7" height="7.02" fill="none" stroke="#666666" pointer-events="none"/><rect x="545.4" y="157.5" width="2.7" height="6.3" fill="none" stroke="#666666" pointer-events="none"/><rect x="545.4" y="163.8" width="2.7" height="7.02" fill="none" stroke="#666666" pointer-events="none"/><rect x="575.1" y="157.5" width="2.7" height="6.3" fill="none" stroke="#666666" pointer-events="none"/><rect x="575.1" y="163.8" width="2.7" height="7.02" fill="none" stroke="#666666" pointer-events="none"/><rect x="604.8" y="157.5" width="2.7" height="6.3" fill="none" stroke="#666666" pointer-events="none"/><rect x="604.8" y="163.8" width="2.7" height="7.02" fill="none" stroke="#666666" pointer-events="none"/><rect x="634.5" y="157.5" width="2.7" height="6.3" fill="none" stroke="#666666" pointer-events="none"/><rect x="634.5" y="163.8" width="2.7" height="7.02" fill="none" stroke="#666666" pointer-events="none"/><rect x="664.2" y="157.5" width="2.7" height="6.3" fill="none" stroke="#666666" pointer-events="none"/><rect x="664.2" y="163.8" width="2.7" height="7.02" fill="none" stroke="#666666" pointer-events="none"/><rect x="693.9" y="157.5" width="2.7" height="6.3" fill="none" stroke="#666666" pointer-events="none"/><rect x="693.9" y="163.8" width="2.7" height="7.02" fill="none" stroke="#666666" pointer-events="none"/><path d="M 466.2 157.5 L 475.33 148.5 L 704.7 148.5 L 695.57 157.5 Z" fill="#ffffff" stroke="#000000" stroke-miterlimit="10" transform="translate(585.45,0)scale(-1,1)translate(-585.45,0)rotate(180,585.45,153)" pointer-events="none"/><path d="M 459.9 164.7 L 468.52 155.7 L 481.5 155.7 L 472.88 164.7 Z" fill="#ffffff" stroke="#000000" stroke-miterlimit="10" transform="rotate(90,470.7,160.2)" pointer-events="none"/><path d="M 457.2 128.7 L 493.2 128.7 L 498.6 134.1 L 498.6 155.7 L 462.6 155.7 L 457.2 150.3 L 457.2 128.7 Z" fill="#ffffff" stroke="#000000" stroke-miterlimit="10" pointer-events="none"/><path d="M 462.6 155.7 L 462.6 134.1 L 457.2 128.7 M 462.6 134.1 L 498.6 134.1" fill="none" stroke="#000000" stroke-miterlimit="10" pointer-events="none"/><path d="M 149.4 93.6 C 149.4 76.8 266.4 76.8 266.4 93.6 L 266.4 167.4 C 266.4 184.2 149.4 184.2 149.4 167.4 Z" fill="#ffffff" stroke="#000000" stroke-miterlimit="10" pointer-events="none"/><path d="M 149.4 93.6 C 149.4 106.2 266.4 106.2 266.4 93.6 M 149.4 99.9 C 149.4 112.5 266.4 112.5 266.4 99.9 M 149.4 106.2 C 149.4 118.8 266.4 118.8 266.4 106.2" fill="none" stroke="#000000" stroke-miterlimit="10" pointer-events="none"/><path d="M 653.4 31.5 L 698.4 113.23 C 698.4 117.8 678.25 121.5 653.4 121.5 C 628.55 121.5 608.4 117.8 608.4 113.23 Z" fill="#ffffff" stroke="#000000" stroke-width="1.8" stroke-miterlimit="10" transform="rotate(-180,653.4,76.5)" pointer-events="none"/><path d="M 608.4 113.23 C 608.4 108.66 628.55 104.95 653.4 104.95 C 678.25 104.95 698.4 108.66 698.4 113.23" fill="#ffffff" stroke="#000000" stroke-width="1.8" stroke-miterlimit="10" transform="rotate(-180,653.4,76.5)" pointer-events="none"/><path d="M 360.9 40.5 L 459.9 40.5 L 477.9 58.5 L 477.9 175.5 L 378.9 175.5 L 360.9 157.5 L 360.9 40.5 Z" fill="#ffffff" stroke="#000000" stroke-miterlimit="10" pointer-events="none"/><path d="M 378.9 175.5 L 378.9 58.5 L 360.9 40.5 M 378.9 58.5 L 477.9 58.5" fill="none" stroke="#000000" stroke-miterlimit="10" pointer-events="none"/><rect x="224.16" y="76.5" width="149.34" height="13.5" fill="#ffffff" stroke="#666666" pointer-events="none"/><rect x="238.56" y="76.5" width="2.7" height="6.3" fill="none" stroke="#666666" pointer-events="none"/><rect x="238.56" y="82.8" width="2.7" height="7.02" fill="none" stroke="#666666" pointer-events="none"/><rect x="268.26" y="76.5" width="2.7" height="6.3" fill="none" stroke="#666666" pointer-events="none"/><rect x="268.26" y="82.8" width="2.7" height="7.02" fill="none" stroke="#666666" pointer-events="none"/><rect x="297.96" y="76.5" width="2.7" height="6.3" fill="none" stroke="#666666" pointer-events="none"/><rect x="297.96" y="82.8" width="2.7" height="7.02" fill="none" stroke="#666666" pointer-events="none"/><rect x="327.66" y="76.5" width="2.7" height="6.3" fill="none" stroke="#666666" pointer-events="none"/><rect x="327.66" y="82.8" width="2.7" height="7.02" fill="none" stroke="#666666" pointer-events="none"/><rect x="357.36" y="76.5" width="2.7" height="6.3" fill="none" stroke="#666666" pointer-events="none"/><rect x="357.36" y="82.8" width="2.7" height="7.02" fill="none" stroke="#666666" pointer-events="none"/><path d="M 218.3 76.5 L 224.24 67.5 L 373.5 67.5 L 367.56 76.5 Z" fill="#ffffff" stroke="#000000" stroke-miterlimit="10" transform="translate(295.9,0)scale(-1,1)translate(-295.9,0)rotate(180,295.9,72)" pointer-events="none"/><path d="M 324 64.8 L 328.5 62.2 L 333 64.8 L 333 69.3 L 328.5 71.9 L 324 69.3 Z" fill="#ffffff" stroke="#000000" stroke-miterlimit="10" pointer-events="none"/><path d="M 324 64.8 L 328.5 67.4 L 333 64.8 M 328.5 67.4 L 328.5 71.9" fill="none" stroke="#000000" stroke-miterlimit="10" pointer-events="none"/><path d="M 306 64.8 L 310.5 62.2 L 315 64.8 L 315 69.3 L 310.5 71.9 L 306 69.3 Z" fill="#ffffff" stroke="#000000" stroke-miterlimit="10" pointer-events="none"/><path d="M 306 64.8 L 310.5 67.4 L 315 64.8 M 310.5 67.4 L 310.5 71.9" fill="none" stroke="#000000" stroke-miterlimit="10" pointer-events="none"/><path d="M 287.1 64.8 L 291.6 62.2 L 296.1 64.8 L 296.1 69.3 L 291.6 71.9 L 287.1 69.3 Z" fill="#ffffff" stroke="#000000" stroke-miterlimit="10" pointer-events="none"/><path d="M 287.1 64.8 L 291.6 67.4 L 296.1 64.8 M 291.6 67.4 L 291.6 71.9" fill="none" stroke="#000000" stroke-miterlimit="10" pointer-events="none"/><path d="M 224.1 65.7 L 228.6 63.1 L 233.1 65.7 L 233.1 70.2 L 228.6 72.8 L 224.1 70.2 Z" fill="#ffffff" stroke="#000000" stroke-miterlimit="10" pointer-events="none"/><path d="M 224.1 65.7 L 228.6 68.3 L 233.1 65.7 M 228.6 68.3 L 228.6 72.8" fill="none" stroke="#000000" stroke-miterlimit="10" pointer-events="none"/><path d="M 359.1 64.8 L 363.6 62.2 L 368.1 64.8 L 368.1 69.3 L 363.6 71.9 L 359.1 69.3 Z" fill="#ffffff" stroke="#000000" stroke-miterlimit="10" pointer-events="none"/><path d="M 359.1 64.8 L 363.6 67.4 L 368.1 64.8 M 363.6 67.4 L 363.6 71.9" fill="none" stroke="#000000" stroke-miterlimit="10" pointer-events="none"/><path d="M 210.6 81.9 L 218.86 76.5 L 231.3 76.5 L 223.04 81.9 Z" fill="#ffffff" stroke="#000000" stroke-miterlimit="10" transform="rotate(90,220.95,79.2)" pointer-events="none"/><path d="M 244.8 64.8 L 249.3 62.2 L 253.8 64.8 L 253.8 69.3 L 249.3 71.9 L 244.8 69.3 Z" fill="#ffffff" stroke="#000000" stroke-miterlimit="10" pointer-events="none"/><path d="M 244.8 64.8 L 249.3 67.4 L 253.8 64.8 M 249.3 67.4 L 249.3 71.9" fill="none" stroke="#000000" stroke-miterlimit="10" pointer-events="none"/><rect x="10.86" y="142.2" width="149.34" height="13.5" fill="#ffffff" stroke="#666666" pointer-events="none"/><rect x="25.26" y="142.2" width="2.7" height="6.3" fill="none" stroke="#666666" pointer-events="none"/><rect x="25.26" y="148.5" width="2.7" height="7.02" fill="none" stroke="#666666" pointer-events="none"/><rect x="54.96" y="142.2" width="2.7" height="6.3" fill="none" stroke="#666666" pointer-events="none"/><rect x="54.96" y="148.5" width="2.7" height="7.02" fill="none" stroke="#666666" pointer-events="none"/><rect x="84.66" y="142.2" width="2.7" height="6.3" fill="none" stroke="#666666" pointer-events="none"/><rect x="84.66" y="148.5" width="2.7" height="7.02" fill="none" stroke="#666666" pointer-events="none"/><rect x="114.36" y="142.2" width="2.7" height="6.3" fill="none" stroke="#666666" pointer-events="none"/><rect x="114.36" y="148.5" width="2.7" height="7.02" fill="none" stroke="#666666" pointer-events="none"/><rect x="144.06" y="142.2" width="2.7" height="6.3" fill="none" stroke="#666666" pointer-events="none"/><rect x="144.06" y="148.5" width="2.7" height="7.02" fill="none" stroke="#666666" pointer-events="none"/><path d="M 5 142.2 L 10.94 133.2 L 160.2 133.2 L 154.26 142.2 Z" fill="#ffffff" stroke="#000000" stroke-miterlimit="10" transform="translate(82.6,0)scale(-1,1)translate(-82.6,0)rotate(180,82.6,137.7)" pointer-events="none"/><path d="M 139.5 139.5 L 146.63 139.5 C 146.88 139.5 147.09 139.3 147.09 139.05 L 147.09 137.7 L 149.91 137.7 L 149.91 139.05 C 149.91 139.3 150.12 139.5 150.37 139.5 L 157.5 139.5 L 155.06 135.9 L 157.5 132.3 L 152.72 132.3 L 152.72 130.95 C 152.72 130.7 152.51 130.5 152.25 130.5 L 144.75 130.5 C 144.49 130.5 144.28 130.7 144.28 130.95 L 144.28 132.3 L 139.5 132.3 L 141.94 135.9 Z" fill="#ffffff" stroke="#000000" stroke-width="1.8" stroke-miterlimit="10" transform="rotate(30,148.5,135)" pointer-events="none"/><path d="M 147.09 139.05 C 147.09 138.8 146.88 138.6 146.63 138.6 L 144.75 138.6 C 144.49 138.6 144.28 138.4 144.28 138.15 C 144.28 137.9 144.49 137.7 144.75 137.7 L 152.25 137.7 C 152.51 137.7 152.72 137.9 152.72 138.15 C 152.72 138.4 152.51 138.6 152.25 138.6 L 150.37 138.6 C 150.12 138.6 149.91 138.8 149.91 139.05 M 144.28 138.15 L 144.28 132.3 M 152.72 138.15 L 152.72 132.3" fill="none" stroke="#000000" stroke-width="1.8" stroke-miterlimit="10" transform="rotate(30,148.5,135)" pointer-events="none"/><path d="M 108 139.5 L 115.13 139.5 C 115.38 139.5 115.59 139.3 115.59 139.05 L 115.59 137.7 L 118.41 137.7 L 118.41 139.05 C 118.41 139.3 118.62 139.5 118.87 139.5 L 126 139.5 L 123.56 135.9 L 126 132.3 L 121.22 132.3 L 121.22 130.95 C 121.22 130.7 121.01 130.5 120.75 130.5 L 113.25 130.5 C 112.99 130.5 112.78 130.7 112.78 130.95 L 112.78 132.3 L 108 132.3 L 110.44 135.9 Z" fill="#ffffff" stroke="#000000" stroke-width="1.8" stroke-miterlimit="10" transform="rotate(30,117,135)" pointer-events="none"/><path d="M 115.59 139.05 C 115.59 138.8 115.38 138.6 115.13 138.6 L 113.25 138.6 C 112.99 138.6 112.78 138.4 112.78 138.15 C 112.78 137.9 112.99 137.7 113.25 137.7 L 120.75 137.7 C 121.01 137.7 121.22 137.9 121.22 138.15 C 121.22 138.4 121.01 138.6 120.75 138.6 L 118.87 138.6 C 118.62 138.6 118.41 138.8 118.41 139.05 M 112.78 138.15 L 112.78 132.3 M 121.22 138.15 L 121.22 132.3" fill="none" stroke="#000000" stroke-width="1.8" stroke-miterlimit="10" transform="rotate(30,117,135)" pointer-events="none"/><path d="M 74.7 139.5 L 81.82 139.5 C 81.95 139.5 82.07 139.45 82.16 139.37 C 82.24 139.28 82.29 139.17 82.29 139.05 L 82.29 137.7 L 85.11 137.7 L 85.11 139.05 C 85.11 139.17 85.16 139.28 85.24 139.37 C 85.33 139.45 85.45 139.5 85.58 139.5 L 92.7 139.5 L 90.26 135.9 L 92.7 132.3 L 87.92 132.3 L 87.92 130.95 C 87.92 130.83 87.87 130.72 87.78 130.63 C 87.69 130.55 87.57 130.5 87.45 130.5 L 79.95 130.5 C 79.83 130.5 79.71 130.55 79.62 130.63 C 79.53 130.72 79.48 130.83 79.48 130.95 L 79.48 132.3 L 74.7 132.3 L 77.14 135.9 Z" fill="#ffffff" stroke="#000000" stroke-width="1.8" stroke-miterlimit="10" transform="rotate(30,83.7,135)" pointer-events="none"/><path d="M 82.29 139.05 C 82.29 138.93 82.24 138.82 82.16 138.73 C 82.07 138.65 81.95 138.6 81.82 138.6 L 79.95 138.6 C 79.69 138.6 79.48 138.4 79.48 138.15 C 79.48 137.9 79.69 137.7 79.95 137.7 L 87.45 137.7 C 87.71 137.7 87.92 137.9 87.92 138.15 C 87.92 138.4 87.71 138.6 87.45 138.6 L 85.58 138.6 C 85.45 138.6 85.33 138.65 85.24 138.73 C 85.16 138.82 85.11 138.93 85.11 139.05 M 79.48 138.15 L 79.48 132.3 M 87.92 138.15 L 87.92 132.3" fill="none" stroke="#000000" stroke-width="1.8" stroke-miterlimit="10" transform="rotate(30,83.7,135)" pointer-events="none"/><path d="M 39.6 139.5 L 46.72 139.5 C 46.85 139.5 46.97 139.45 47.06 139.37 C 47.14 139.28 47.19 139.17 47.19 139.05 L 47.19 137.7 L 50.01 137.7 L 50.01 139.05 C 50.01 139.17 50.06 139.28 50.14 139.37 C 50.23 139.45 50.35 139.5 50.48 139.5 L 57.6 139.5 L 55.16 135.9 L 57.6 132.3 L 52.82 132.3 L 52.82 130.95 C 52.82 130.83 52.77 130.72 52.68 130.63 C 52.59 130.55 52.47 130.5 52.35 130.5 L 44.85 130.5 C 44.73 130.5 44.61 130.55 44.52 130.63 C 44.43 130.72 44.38 130.83 44.38 130.95 L 44.38 132.3 L 39.6 132.3 L 42.04 135.9 Z" fill="#ffffff" stroke="#000000" stroke-width="1.8" stroke-miterlimit="10" transform="rotate(30,48.6,135)" pointer-events="none"/><path d="M 47.19 139.05 C 47.19 138.93 47.14 138.82 47.06 138.73 C 46.97 138.65 46.85 138.6 46.72 138.6 L 44.85 138.6 C 44.59 138.6 44.38 138.4 44.38 138.15 C 44.38 137.9 44.59 137.7 44.85 137.7 L 52.35 137.7 C 52.61 137.7 52.82 137.9 52.82 138.15 C 52.82 138.4 52.61 138.6 52.35 138.6 L 50.48 138.6 C 50.35 138.6 50.23 138.65 50.14 138.73 C 50.06 138.82 50.01 138.93 50.01 139.05 M 44.38 138.15 L 44.38 132.3 M 52.82 138.15 L 52.82 132.3" fill="none" stroke="#000000" stroke-width="1.8" stroke-miterlimit="10" transform="rotate(30,48.6,135)" pointer-events="none"/><path d="M 5.4 139.5 L 12.52 139.5 C 12.65 139.5 12.77 139.45 12.86 139.37 C 12.94 139.28 12.99 139.17 12.99 139.05 L 12.99 137.7 L 15.81 137.7 L 15.81 139.05 C 15.81 139.17 15.86 139.28 15.94 139.37 C 16.03 139.45 16.15 139.5 16.28 139.5 L 23.4 139.5 L 20.96 135.9 L 23.4 132.3 L 18.62 132.3 L 18.62 130.95 C 18.62 130.83 18.57 130.72 18.48 130.63 C 18.39 130.55 18.27 130.5 18.15 130.5 L 10.65 130.5 C 10.53 130.5 10.41 130.55 10.32 130.63 C 10.23 130.72 10.18 130.83 10.18 130.95 L 10.18 132.3 L 5.4 132.3 L 7.84 135.9 Z" fill="#ffffff" stroke="#000000" stroke-width="1.8" stroke-miterlimit="10" transform="rotate(30,14.4,135)" pointer-events="none"/><path d="M 12.99 139.05 C 12.99 138.93 12.94 138.82 12.86 138.73 C 12.77 138.65 12.65 138.6 12.52 138.6 L 10.65 138.6 C 10.39 138.6 10.18 138.4 10.18 138.15 C 10.18 137.9 10.39 137.7 10.65 137.7 L 18.15 137.7 C 18.41 137.7 18.62 137.9 18.62 138.15 C 18.62 138.4 18.41 138.6 18.15 138.6 L 16.28 138.6 C 16.15 138.6 16.03 138.65 15.94 138.73 C 15.86 138.82 15.81 138.93 15.81 139.05 M 10.18 138.15 L 10.18 132.3 M 18.62 138.15 L 18.62 132.3" fill="none" stroke="#000000" stroke-width="1.8" stroke-miterlimit="10" transform="rotate(30,14.4,135)" pointer-events="none"/><path d="M -2.7 147.6 L 5.56 142.2 L 18 142.2 L 9.74 147.6 Z" fill="#ffffff" stroke="#000000" stroke-miterlimit="10" transform="rotate(90,7.65,144.9)" pointer-events="none"/><path d="M 342 64.8 L 346.5 62.2 L 351 64.8 L 351 69.3 L 346.5 71.9 L 342 69.3 Z" fill="#ffffff" stroke="#000000" stroke-miterlimit="10" pointer-events="none"/><path d="M 342 64.8 L 346.5 67.4 L 351 64.8 M 346.5 67.4 L 346.5 71.9" fill="none" stroke="#000000" stroke-miterlimit="10" pointer-events="none"/><path d="M 266.4 64.8 L 270.9 62.2 L 275.4 64.8 L 275.4 69.3 L 270.9 71.9 L 266.4 69.3 Z" fill="#ffffff" stroke="#000000" stroke-miterlimit="10" pointer-events="none"/><path d="M 266.4 64.8 L 270.9 67.4 L 275.4 64.8 M 270.9 67.4 L 270.9 71.9" fill="none" stroke="#000000" stroke-miterlimit="10" pointer-events="none"/><path d="M 207 78.3 L 211.5 75.7 L 216 78.3 L 216 82.8 L 211.5 85.4 L 207 82.8 Z" fill="#ffffff" stroke="#000000" stroke-miterlimit="10" pointer-events="none"/><path d="M 207 78.3 L 211.5 80.9 L 216 78.3 M 211.5 80.9 L 211.5 85.4" fill="none" stroke="#000000" stroke-miterlimit="10" pointer-events="none"/><path d="M 204.3 95.4 L 208.8 92.8 L 213.3 95.4 L 213.3 99.9 L 208.8 102.5 L 204.3 99.9 Z" fill="#ffffff" stroke="#000000" stroke-miterlimit="10" pointer-events="none"/><path d="M 204.3 95.4 L 208.8 98 L 213.3 95.4 M 208.8 98 L 208.8 102.5" fill="none" stroke="#000000" stroke-miterlimit="10" pointer-events="none"/><path d="M 543.6 128.7 L 579.6 128.7 L 585 134.1 L 585 155.7 L 549 155.7 L 543.6 150.3 L 543.6 128.7 Z" fill="#ffffff" stroke="#000000" stroke-miterlimit="10" pointer-events="none"/><path d="M 549 155.7 L 549 134.1 L 543.6 128.7 M 549 134.1 L 585 134.1" fill="none" stroke="#000000" stroke-miterlimit="10" pointer-events="none"/><path d="M 624.6 128.7 L 640.8 128.7 L 646.2 134.1 L 646.2 155.7 L 630 155.7 L 624.6 150.3 L 624.6 128.7 Z" fill="#ffffff" stroke="#000000" stroke-miterlimit="10" pointer-events="none"/><path d="M 630 155.7 L 630 134.1 L 624.6 128.7 M 630 134.1 L 646.2 134.1" fill="none" stroke="#000000" stroke-miterlimit="10" pointer-events="none"/><path d="M 647.1 148.5 L 650.7 142.66 L 647.64 138.57 L 650.7 135.06 L 647.64 129.8 L 653.22 120.6 L 657.9 128.05 L 653.58 132.14 L 656.1 136.23 L 652.32 139.74 L 654.66 142.95 Z" fill="#ffffff" stroke="#000000" stroke-width="1.8" stroke-miterlimit="6" transform="translate(0,134.55)scale(1,-1)translate(0,-134.55)rotate(-20,652.5,134.55)" pointer-events="none"/><path d="M 623.89 32.27 C 623.1 33.14 622.2 32.37 621.7 30.37 C 621.19 28.37 621.19 25.62 621.7 23.63 C 622.2 21.63 623.1 20.85 623.89 21.72 C 623.88 18.2 624.62 15.04 625.74 13.79 C 626.85 12.53 628.12 13.45 628.91 16.09 C 629.42 12.35 630.65 9.9 632.01 9.9 C 633.38 9.9 634.61 12.35 635.12 16.09 C 635.93 13.94 637.09 13.33 638.1 14.52 C 639.12 15.72 639.81 18.51 639.9 21.72 C 640.69 20.85 641.59 21.63 642.09 23.63 C 642.6 25.62 642.6 28.37 642.09 30.37 C 641.59 32.37 640.69 33.14 639.9 32.27 C 639.81 35.67 639.04 38.58 637.95 39.65 C 636.85 40.73 635.64 39.76 634.88 37.2 C 634.28 40.16 633.19 41.98 632.01 41.98 C 630.84 41.98 629.75 40.16 629.15 37.2 C 628.57 40.62 626.93 42.29 625.47 40.93 C 624.02 39.57 623.31 35.69 623.89 32.27 Z" fill="#ffffff" stroke="#000000" stroke-width="1.8" stroke-linejoin="round" stroke-miterlimit="10" transform="rotate(-115,631.8,31.5)" pointer-events="none"/><ellipse cx="625" cy="44" rx="1.4334697489215795" ry="1.8996742671009772" fill="#ffffff" stroke="#000000" stroke-width="1.8" transform="rotate(-115,631.8,31.5)" pointer-events="none"/><ellipse cx="623" cy="49" rx="0.9078641743170002" ry="1.2664495114006515" fill="#ffffff" stroke="#000000" stroke-width="1.8" transform="rotate(-115,631.8,31.5)" pointer-events="none"/><ellipse cx="622" cy="52" rx="0.5733878995686318" ry="0.9146579804560261" fill="#ffffff" stroke="#000000" stroke-width="1.8" transform="rotate(-115,631.8,31.5)" pointer-events="none"/><path d="M 635.36 29.85 C 634.13 30.52 632.75 29.92 631.97 28.38 C 631.19 26.84 631.19 24.72 631.97 23.18 C 632.75 21.64 634.13 21.04 635.36 21.71 C 635.35 19 636.48 16.56 638.2 15.6 C 639.92 14.63 641.87 15.34 643.09 17.37 C 643.87 14.49 645.77 12.6 647.88 12.6 C 649.99 12.6 651.89 14.49 652.67 17.37 C 653.92 15.71 655.7 15.24 657.27 16.16 C 658.83 17.09 659.91 19.24 660.03 21.71 C 661.26 21.04 662.64 21.64 663.42 23.18 C 664.2 24.72 664.2 26.84 663.42 28.38 C 662.64 29.92 661.26 30.52 660.03 29.85 C 659.9 32.46 658.71 34.7 657.02 35.53 C 655.33 36.36 653.47 35.62 652.3 33.64 C 651.37 35.93 649.69 37.32 647.88 37.32 C 646.07 37.32 644.39 35.93 643.46 33.64 C 642.57 36.28 640.03 37.57 637.8 36.52 C 635.56 35.47 634.47 32.48 635.36 29.85 Z" fill="#ffffff" stroke="#000000" stroke-width="1.8" stroke-linejoin="round" stroke-miterlimit="10" transform="rotate(-115,647.55,29.25)" pointer-events="none"/><ellipse cx="636" cy="39" rx="2.2099325295874355" ry="1.4643322475570035" fill="#ffffff" stroke="#000000" stroke-width="1.8" transform="rotate(-115,647.55,29.25)" pointer-events="none"/><ellipse cx="634" cy="43" rx="1.3996239354053754" ry="0.9762214983713355" fill="#ffffff" stroke="#000000" stroke-width="1.8" transform="rotate(-115,647.55,29.25)" pointer-events="none"/><ellipse cx="632" cy="45" rx="0.883973011834974" ry="0.7050488599348536" fill="#ffffff" stroke="#000000" stroke-width="1.8" transform="rotate(-115,647.55,29.25)" pointer-events="none"/><path d="M 657.86 30.04 C 656.63 30.93 655.25 30.13 654.47 28.09 C 653.69 26.05 653.69 23.25 654.47 21.21 C 655.25 19.17 656.63 18.38 657.86 19.27 C 657.85 15.67 658.98 12.45 660.7 11.17 C 662.42 9.89 664.37 10.83 665.59 13.52 C 666.37 9.7 668.27 7.2 670.38 7.2 C 672.49 7.2 674.39 9.7 675.17 13.52 C 676.42 11.32 678.2 10.7 679.77 11.92 C 681.33 13.14 682.41 15.99 682.53 19.27 C 683.76 18.38 685.14 19.17 685.92 21.21 C 686.7 23.25 686.7 26.05 685.92 28.09 C 685.14 30.13 683.76 30.93 682.53 30.04 C 682.4 33.5 681.21 36.47 679.52 37.57 C 677.83 38.67 675.97 37.68 674.8 35.07 C 673.87 38.09 672.19 39.94 670.38 39.94 C 668.57 39.94 666.89 38.09 665.96 35.07 C 665.07 38.56 662.53 40.26 660.3 38.87 C 658.06 37.49 656.97 33.53 657.86 30.04 Z" fill="#ffffff" stroke="#000000" stroke-width="1.8" stroke-linejoin="round" stroke-miterlimit="10" transform="rotate(107,670.05,29.25)" pointer-events="none"/><ellipse cx="659" cy="42" rx="2.2099325295874355" ry="1.9392508143322478" fill="#ffffff" stroke="#000000" stroke-width="1.8" transform="rotate(107,670.05,29.25)" pointer-events="none"/><ellipse cx="656" cy="47" rx="1.3996239354053754" ry="1.2928338762214984" fill="#ffffff" stroke="#000000" stroke-width="1.8" transform="rotate(107,670.05,29.25)" pointer-events="none"/><ellipse cx="654" cy="50" rx="0.883973011834974" ry="0.93371335504886" fill="#ffffff" stroke="#000000" stroke-width="1.8" transform="rotate(107,670.05,29.25)" pointer-events="none"/><path d="M 638.78 26.28 C 637.36 26.98 635.75 26.35 634.85 24.73 C 633.94 23.11 633.94 20.88 634.85 19.25 C 635.75 17.63 637.36 17 638.78 17.7 C 638.77 14.84 640.09 12.28 642.09 11.26 C 644.09 10.24 646.35 10.99 647.77 13.13 C 648.68 10.09 650.88 8.1 653.33 8.1 C 655.78 8.1 657.99 10.09 658.9 13.13 C 660.35 11.38 662.43 10.89 664.24 11.86 C 666.06 12.83 667.31 15.1 667.46 17.7 C 668.88 17 670.48 17.63 671.39 19.25 C 672.3 20.88 672.3 23.11 671.39 24.73 C 670.48 26.35 668.88 26.98 667.46 26.28 C 667.3 29.04 665.92 31.4 663.96 32.27 C 662 33.15 659.83 32.36 658.47 30.28 C 657.39 32.69 655.44 34.16 653.33 34.16 C 651.23 34.16 649.28 32.69 648.2 30.28 C 647.16 33.06 644.22 34.42 641.62 33.31 C 639.01 32.21 637.75 29.06 638.78 26.28 Z" fill="#ffffff" stroke="#000000" stroke-width="1.8" stroke-linejoin="round" stroke-miterlimit="10" transform="rotate(107,652.95,25.65)" pointer-events="none"/><ellipse cx="640" cy="36" rx="2.56829996681783" ry="1.5434853420195442" fill="#ffffff" stroke="#000000" stroke-width="1.8" transform="rotate(107,652.95,25.65)" pointer-events="none"/><ellipse cx="637" cy="40" rx="1.6265899789846257" ry="1.0289902280130294" fill="#ffffff" stroke="#000000" stroke-width="1.8" transform="rotate(107,652.95,25.65)" pointer-events="none"/><ellipse cx="635" cy="42" rx="1.027319986727132" ry="0.7431596091205214" fill="#ffffff" stroke="#000000" stroke-width="1.8" transform="rotate(107,652.95,25.65)" pointer-events="none"/><path d="M 306.9 194.4 L 477 194.4 L 477 186.3 L 513 199.8 L 477 213.3 L 477 205.2 L 306.9 205.2 Z M 284.4 205.2 L 288 205.2 L 288 194.4 L 284.4 194.4 Z M 291.6 205.2 L 302.4 205.2 L 302.4 194.4 L 291.6 194.4 Z" fill="#ffffff" stroke="#000000" stroke-miterlimit="10" transform="translate(398.7,0)scale(-1,1)translate(-398.7,0)" pointer-events="none"/></g></svg>