<!DOCTYPE svg PUBLIC "-//W3C//DTD SVG 1.1//EN" "http://www.w3.org/Graphics/SVG/1.1/DTD/svg11.dtd">
<svg xmlns="http://www.w3.org/2000/svg" xmlns:xlink="http://www.w3.org/1999/xlink" width="476px" height="357px" version="1.1" style="background-color: rgb(255, 255, 255);"><defs/><g transform="translate(0.5,0.5)"><path d="M 164 44 L 454 44 L 474 64 L 474 355 L 184 355 L 164 335 L 164 44 Z" fill="#ffffff" stroke="#000000" stroke-miterlimit="10" pointer-events="none"/><path d="M 184 355 L 184 64 L 164 44 M 184 64 L 474 64" fill="none" stroke="#000000" stroke-miterlimit="10" pointer-events="none"/><path d="M 217 61 L 229.18 49 L 302 49 L 289.82 61 Z" fill="#707070" stroke="#000000" stroke-width="2" stroke-miterlimit="10" transform="translate(259.5,0)scale(-1,1)translate(-259.5,0)" pointer-events="none"/><rect x="204.26" y="87.8" width="80.87" height="34.17" fill="#b4b4b4" stroke="#000000" pointer-events="none"/><rect x="207.28" y="87.8" width="74.89" height="34.17" fill="#e8e8e8" stroke="#000000" pointer-events="none"/><rect x="208.78" y="91.27" width="14.07" height="9.23" fill="none" stroke="#000000" pointer-events="none"/><rect x="224.37" y="91.27" width="14.07" height="9.23" fill="none" stroke="#000000" pointer-events="none"/><rect x="244.47" y="87.8" width="25.13" height="12.7" fill="none" stroke="#000000" pointer-events="none"/><rect x="234.42" y="103.96" width="2.51" height="4.62" fill="none" stroke="#000000" pointer-events="none"/><rect x="234.42" y="110.89" width="2.51" height="4.62" fill="none" stroke="#000000" pointer-events="none"/><rect x="243.97" y="103.96" width="2.51" height="4.62" fill="none" stroke="#000000" pointer-events="none"/><rect x="243.97" y="110.89" width="2.51" height="4.62" fill="none" stroke="#000000" pointer-events="none"/><rect x="247.99" y="103.96" width="2.51" height="4.62" fill="none" stroke="#000000" pointer-events="none"/><rect x="247.99" y="110.89" width="2.51" height="4.62" fill="none" stroke="#000000" pointer-events="none"/><rect x="262.06" y="105.12" width="3.02" height="11.54" fill="none" stroke="#000000" pointer-events="none"/><rect x="266.58" y="105.12" width="3.02" height="11.54" fill="none" stroke="#000000" pointer-events="none"/><rect x="271.11" y="105.12" width="3.02" height="11.54" fill="none" stroke="#000000" pointer-events="none"/><rect x="277.14" y="97.04" width="1.51" height="15.7" rx="0.75" ry="0.75" fill="none" stroke="#000000" pointer-events="none"/><rect x="208.28" y="105.12" width="8.54" height="16.85" fill="none" stroke="#000000" pointer-events="none"/><rect x="217.83" y="105.12" width="8.54" height="16.85" fill="none" stroke="#000000" pointer-events="none"/><rect x="252.01" y="103.96" width="2.51" height="4.62" fill="none" stroke="#000000" pointer-events="none"/><rect x="252.01" y="110.89" width="2.51" height="4.62" fill="none" stroke="#000000" pointer-events="none"/><path d="M 349 61 L 361.18 49 L 434 49 L 421.82 61 Z" fill="#707070" stroke="#000000" stroke-width="2" stroke-miterlimit="10" transform="translate(391.5,0)scale(-1,1)translate(-391.5,0)" pointer-events="none"/><path d="M 228 1 L 272 1 L 285 14 L 285 55 L 241 55 L 228 42 L 228 1 Z" fill="#ffffff" stroke="#000000" stroke-miterlimit="10" pointer-events="none"/><path d="M 241 55 L 241 14 L 228 1 M 241 14 L 285 14" fill="none" stroke="#000000" stroke-miterlimit="10" pointer-events="none"/><path d="M 388 18 L 411 54.32 C 411 56.35 400.7 58 388 58 C 375.3 58 365 56.35 365 54.32 Z" fill="#ffffff" stroke="#000000" stroke-width="2" stroke-miterlimit="10" transform="rotate(-180,388,38)" pointer-events="none"/><path d="M 365 54.32 C 365 52.29 375.3 50.64 388 50.64 C 400.7 50.64 411 52.29 411 54.32" fill="#ffffff" stroke="#000000" stroke-width="2" stroke-miterlimit="10" transform="rotate(-180,388,38)" pointer-events="none"/><rect x="12.06" y="315" width="165.94" height="15" fill="#ffffff" stroke="#666666" pointer-events="none"/><rect x="28.06" y="315" width="3" height="7" fill="none" stroke="#666666" pointer-events="none"/><rect x="28.06" y="322" width="3" height="7.8" fill="none" stroke="#666666" pointer-events="none"/><rect x="61.06" y="315" width="3" height="7" fill="none" stroke="#666666" pointer-events="none"/><rect x="61.06" y="322" width="3" height="7.8" fill="none" stroke="#666666" pointer-events="none"/><rect x="94.06" y="315" width="3" height="7" fill="none" stroke="#666666" pointer-events="none"/><rect x="94.06" y="322" width="3" height="7.8" fill="none" stroke="#666666" pointer-events="none"/><rect x="127.06" y="315" width="3" height="7" fill="none" stroke="#666666" pointer-events="none"/><rect x="127.06" y="322" width="3" height="7.8" fill="none" stroke="#666666" pointer-events="none"/><rect x="160.06" y="315" width="3" height="7" fill="none" stroke="#666666" pointer-events="none"/><rect x="160.06" y="322" width="3" height="7.8" fill="none" stroke="#666666" pointer-events="none"/><path d="M 5.56 315 L 12.15 305 L 178 305 L 171.4 315 Z" fill="#ffffff" stroke="#000000" stroke-miterlimit="10" transform="translate(91.78,0)scale(-1,1)translate(-91.78,0)rotate(180,91.78,310)" pointer-events="none"/><path d="M -3 321 L 6.18 315 L 20 315 L 10.82 321 Z" fill="#ffffff" stroke="#000000" stroke-miterlimit="10" transform="rotate(90,8.5,318)" pointer-events="none"/><path d="M 33 225 L 127 225 L 147 245 L 147 319 L 53 319 L 33 299 L 33 225 Z" fill="#ffffff" stroke="#000000" stroke-miterlimit="10" pointer-events="none"/><path d="M 53 319 L 53 245 L 33 225 M 53 245 L 147 245" fill="none" stroke="#000000" stroke-miterlimit="10" pointer-events="none"/><path d="M 74 239 L 82.1 232 L 111 232 L 102.9 239 Z" fill="#707070" stroke="#000000" stroke-width="2" stroke-miterlimit="10" transform="translate(92.5,0)scale(-1,1)translate(-92.5,0)" pointer-events="none"/><rect x="88.76" y="272.35" width="24.52" height="12.52" fill="#b4b4b4" stroke="#000000" pointer-events="none"/><rect x="89.67" y="272.35" width="22.71" height="12.52" fill="#e8e8e8" stroke="#000000" pointer-events="none"/><rect x="90.13" y="273.62" width="4.27" height="3.38" fill="none" stroke="#000000" pointer-events="none"/><rect x="94.85" y="273.62" width="4.27" height="3.38" fill="none" stroke="#000000" pointer-events="none"/><rect x="100.95" y="272.35" width="7.62" height="4.65" fill="none" stroke="#000000" pointer-events="none"/><rect x="97.9" y="278.27" width="0.76" height="1.69" fill="none" stroke="#000000" pointer-events="none"/><rect x="97.9" y="280.81" width="0.76" height="1.69" fill="none" stroke="#000000" pointer-events="none"/><rect x="100.8" y="278.27" width="0.76" height="1.69" fill="none" stroke="#000000" pointer-events="none"/><rect x="100.8" y="280.81" width="0.76" height="1.69" fill="none" stroke="#000000" pointer-events="none"/><rect x="102.02" y="278.27" width="0.76" height="1.69" fill="none" stroke="#000000" pointer-events="none"/><rect x="102.02" y="280.81" width="0.76" height="1.69" fill="none" stroke="#000000" pointer-events="none"/><rect x="106.28" y="278.69" width="0.91" height="4.23" fill="none" stroke="#000000" pointer-events="none"/><rect x="107.65" y="278.69" width="0.91" height="4.23" fill="none" stroke="#000000" pointer-events="none"/><rect x="109.03" y="278.69" width="0.91" height="4.23" fill="none" stroke="#000000" pointer-events="none"/><rect x="110.86" y="275.73" width="0.46" height="5.75" rx="0.23" ry="0.23" fill="none" stroke="#000000" pointer-events="none"/><rect x="89.98" y="278.69" width="2.59" height="6.18" fill="none" stroke="#000000" pointer-events="none"/><rect x="92.87" y="278.69" width="2.59" height="6.18" fill="none" stroke="#000000" pointer-events="none"/><rect x="103.23" y="278.27" width="0.76" height="1.69" fill="none" stroke="#000000" pointer-events="none"/><rect x="103.23" y="280.81" width="0.76" height="1.69" fill="none" stroke="#000000" pointer-events="none"/></g></svg>