<?xml version="1.0" encoding="UTF-8" standalone="no"?>
<!-- Created with Inkscape (http://www.inkscape.org/) -->

<svg
   xmlns:dc="http://purl.org/dc/elements/1.1/"
   xmlns:cc="http://creativecommons.org/ns#"
   xmlns:rdf="http://www.w3.org/1999/02/22-rdf-syntax-ns#"
   xmlns:svg="http://www.w3.org/2000/svg"
   xmlns="http://www.w3.org/2000/svg"
   xmlns:sodipodi="http://sodipodi.sourceforge.net/DTD/sodipodi-0.dtd"
   xmlns:inkscape="http://www.inkscape.org/namespaces/inkscape"
   width="250mm"
   height="425mm"
   viewBox="0 0 885.82675 1505.9055"
   id="svg2"
   version="1.1"
   inkscape:version="0.91 r13725"
   sodipodi:docname="fljs-lightbulb.svg">
  <defs
     id="defs4" />
  <sodipodi:namedview
     id="base"
     pagecolor="#ffffff"
     bordercolor="#666666"
     borderopacity="1.0"
     inkscape:pageopacity="0.0"
     inkscape:pageshadow="2"
     inkscape:zoom="0.35"
     inkscape:cx="294.44329"
     inkscape:cy="845.52492"
     inkscape:document-units="px"
     inkscape:current-layer="layer7"
     showgrid="false"
     inkscape:showpageshadow="false" />
  <metadata
     id="metadata7">
    <rdf:RDF>
      <cc:Work
         rdf:about="">
        <dc:format>image/svg+xml</dc:format>
        <dc:type
           rdf:resource="http://purl.org/dc/dcmitype/StillImage" />
        <dc:title></dc:title>
      </cc:Work>
    </rdf:RDF>
  </metadata>
  <g
     inkscape:groupmode="layer"
     id="g4916"
     inkscape:label="white fill"
     style="display:inline"
     transform="translate(0,-620.07881)"
     sodipodi:insensitive="true">
    <path
       style="fill:#ffffff;fill-opacity:1;fill-rule:evenodd;stroke:none;stroke-width:1px;stroke-linecap:butt;stroke-linejoin:miter;stroke-opacity:1"
       d="m 376.3042,1385.7018 c 0,0 -3.84671,115.496 -80.74312,191.5997 -118.97966,117.7532 -178.93231,193.0039 -163.44405,300.868 23.55005,164.0082 195.35746,256.0382 355.54908,221.9643 211.00431,-44.8822 231.44379,-206.6849 202.93579,-292.4258 -10.33251,-31.0761 -43.1751,-104.2843 -116.03378,-196.7322 -29.76506,-53.4732 -28.66623,-99.4684 -22.2733,-154.105 0,0 6.03157,-25.944 3.77832,-25.8062 -24.22839,-11.9194 -179.17255,-49.938 -179.76894,-45.3628 z"
       id="path4918"
       inkscape:connector-curvature="0"
       sodipodi:nodetypes="csssscccc" />
    <path
       style="fill:#ffffff;fill-opacity:1;fill-rule:evenodd;stroke:none;stroke-width:1px;stroke-linecap:butt;stroke-linejoin:miter;stroke-opacity:1"
       d="m 461.97135,1261.9115 c 0,0 -2.52538,-10.354 10.35407,-16.6675 12.87944,-6.3134 33.84011,-8.5863 37.37564,-3.7881 3.53553,4.7983 8.83883,30.5571 12.37437,31.0622 3.53553,0.5051 45.45686,14.6472 48.9924,23.7386 3.53553,9.0914 0,25.7589 -0.75762,29.547 -0.75761,3.788 3.03046,17.9302 1.26269,22.2233 -1.76776,4.2932 -10.10152,10.1016 -9.34391,12.3744 0.75762,2.2728 5.80838,14.3947 2.77792,20.203 -3.03046,5.8084 -15.15229,16.9201 -15.15229,16.9201 0,0 -57.32615,-24.2437 -62.12438,-23.486 -4.79822,0.7576 -34.09265,-6.566 -44.44671,-5.0508 -10.35406,1.5152 -62.882,4.0406 -66.67007,0.7576 -3.78807,-3.283 -11.61675,-13.8896 -10.85914,-17.9302 0.75762,-4.0406 11.86929,-15.6574 13.63706,-15.6574 1.76777,0 -3.28299,-7.5761 -3.28299,-11.6167 0,-4.0406 9.09137,-20.7081 12.37436,-22.7285 3.283,-2.0203 8.08122,-5.3033 10.10153,-7.071 2.02031,-1.7678 -0.25254,-10.8592 6.06092,-17.6777 6.31345,-6.8185 16.16244,-13.132 19.44543,-13.3845 3.283,-0.2525 37.88072,-1.7678 37.88072,-1.7678 z"
       id="path4924"
       inkscape:connector-curvature="0" />
  </g>
  <g
     inkscape:groupmode="layer"
     id="layer2"
     inkscape:label="bulb outline"
     transform="translate(0,-620.07881)"
     sodipodi:insensitive="true">
    <path
       style="fill:#000000;fill-opacity:1;fill-rule:evenodd;stroke:#000000;stroke-width:1px;stroke-linecap:butt;stroke-linejoin:miter;stroke-opacity:1"
       d="m 373.5713,1388.1269 c 0,0 -4.41172,112.6299 -86.42857,188.5714 -135,125 -184.55675,210.8553 -162.14285,320 30.52252,148.6298 167.79004,244.2602 366.42857,211.4286 190.84142,-31.5429 235.45499,-187.1499 208.57143,-282.8572 -3.33299,-11.8657 -25.32487,-80.9542 -85.96284,-163.624 -40.06249,-54.6185 -56.35366,-86.2334 -60.91216,-128.3402 -2.82478,-26.0924 4.9107,-76.0714 4.9107,-76.0714 0,0 2.49835,-26.7472 -0.17853,-26.6071 -12.40527,0.6493 -18.80941,50.2376 -19.28571,67.3214 -1.39386,49.9946 17.57273,95.7595 37.85714,121.25 57.93949,72.8099 114.54208,147.8222 115.00001,249.6429 0.18001,40.0251 -25.14837,147.9894 -106.42858,190.7143 -132.23719,69.5104 -288.90935,35.2884 -355.71431,-20.7142 -118.10571,-99.0081 -106.88802,-230.7099 -60.71429,-302.143 88.19018,-136.4346 133.9103,-123.1853 177.14287,-214.9999 20.73246,-44.0304 33.48214,-132.9465 33.48214,-132.9465 1.07807,-3.9199 -5.68717,-5.702 -5.62502,-0.6251 z"
       id="path4223"
       inkscape:connector-curvature="0"
       sodipodi:nodetypes="csssssscsssssssscc" />
  </g>
  <g
     inkscape:label="bulb fill"
     id="g4306"
     inkscape:groupmode="layer"
     style="display:inline"
     transform="translate(0,-620.07881)"
     sodipodi:insensitive="true">
    <path
       sodipodi:nodetypes="cssssssccc"
       inkscape:connector-curvature="0"
       id="path4308"
       d="m 385.94705,1386.059 c 0,0 4.36758,120.8531 -64.67168,195.5282 -113.63882,122.9154 -193.73995,199.2577 -174.87262,306.5823 25.6929,146.1511 173.58152,238.632 332.69193,199.8214 148.86145,-36.3107 206.27986,-184.0287 183.65008,-278.14 -2.80553,-11.6678 -27.37854,-91.7261 -82.46235,-158.8751 -40.22121,-49.0309 -43.3961,-72.6735 -47.23331,-114.0781 -2.37782,-25.6573 8.17429,-82.8841 8.17429,-82.8841 l 6.41574,-26.4158 c -24.22839,-11.9194 -161.09569,-46.114 -161.69208,-41.5388 z"
       style="fill:#ffdf46;fill-opacity:1;fill-rule:evenodd;stroke:none;stroke-width:1px;stroke-linecap:butt;stroke-linejoin:miter;stroke-opacity:1" />
  </g>
  <g
     inkscape:groupmode="layer"
     id="layer3"
     inkscape:label="base &amp; wire"
     style="display:inline"
     transform="translate(0,-620.07881)"
     sodipodi:insensitive="true">
    <path
       style="opacity:1;fill:#000000;fill-opacity:1;fill-rule:nonzero;stroke:#000000;stroke-width:3;stroke-linecap:butt;stroke-linejoin:miter;stroke-miterlimit:4;stroke-dasharray:none;stroke-opacity:1"
       id="path4226"
       d="m 425.91521,1262.4439 c -2.45136,1.9135 -5.09717,3.5912 -7.31711,5.7805 -1.82802,1.751 -3.04576,3.903 -3.99278,6.2242 -0.92924,2.6943 -1.57673,5.4607 -2.27521,8.2182 -0.89265,2.5387 -1.23692,5.0333 -0.97271,7.6941 0.32905,1.6134 1.11031,3.0086 2.18286,4.2379 0,0 -12.16235,7.3058 -12.16235,7.3058 l 0,0 c -1.19949,-1.4824 -2.13225,-3.099 -2.57525,-4.9739 -0.334,-2.8181 -0.25282,-5.4781 0.75878,-8.1824 0.81352,-2.7486 1.2999,-5.5956 2.21152,-8.3205 0.80906,-2.4501 1.91433,-4.8921 3.78221,-6.7185 1.97768,-2.4725 4.71604,-4.0553 7.16232,-6.0169 0,0 13.19772,-5.2485 13.19772,-5.2485 z"
       inkscape:connector-curvature="0" />
    <path
       style="opacity:1;fill:#000000;fill-opacity:1;fill-rule:nonzero;stroke:#000000;stroke-width:3;stroke-linecap:butt;stroke-linejoin:miter;stroke-miterlimit:4;stroke-dasharray:none;stroke-opacity:1"
       id="path4250"
       d="m 390.89889,1300.8159 c 0,0 -3.49344,1.9743 -9.60438,13.6973 -1.07417,2.7177 -1.38253,5.6143 -1.55826,8.5048 -0.22333,2.7752 -0.28643,5.3136 1.0653,7.7948 1.57138,1.8931 3.21988,3.7909 5.31759,5.1079 0,0 -3.77732,1.2072 -7.05621,2.1151 0,0 -1.47142,-2.272 -3.1712,-4.4034 -1.41822,-2.5814 -1.46679,-5.1718 -1.21221,-8.0745 0.16005,-2.9393 0.43783,-5.8907 1.4821,-8.6704 1.09188,-2.7715 2.24724,-5.5133 3.8382,-8.0427 1.38304,-2.0232 2.83318,-3.8712 4.88184,-5.2729 3.88648,-2.4538 13.58178,-8.06 13.58178,-8.06 z"
       inkscape:connector-curvature="0"
       sodipodi:nodetypes="ccccccccccccc" />
    <path
       style="opacity:1;fill:#000000;fill-opacity:1;fill-rule:nonzero;stroke:#000000;stroke-width:3;stroke-linecap:butt;stroke-linejoin:miter;stroke-miterlimit:4;stroke-dasharray:none;stroke-opacity:1"
       id="path4254"
       d="m 369.81602,1348.8941 c -0.23315,2.7869 -0.19514,5.5876 -0.18667,8.3817 0.0713,3.333 2.58238,5.1193 5.04482,6.9224 2.69609,1.8486 5.56888,3.1809 8.75024,3.9037 1.91986,0.2991 0.95912,0.1758 2.88212,0.3708 l -4.61345,3.2754 0,0 c -1.9484,-0.2299 -0.97463,-0.087 -2.92115,-0.4297 -3.21634,-0.8036 -6.14035,-2.202 -8.86813,-4.0969 -2.58968,-1.9153 -5.17212,-3.8884 -5.31575,-7.3749 -0.0104,-2.8131 -0.048,-5.6311 0.15296,-8.4389 0.26421,-2.5039 0.67668,-4.9865 2.5079,-6.8673 0.62727,-0.582 1.13157,-1.3145 1.84932,-1.7803 3.04611,-1.9771 6.25452,-3.8535 9.58059,-5.3526 3.94666,0.2942 -7.25265,2.5707 -8.8628,11.4866 z"
       inkscape:connector-curvature="0"
       sodipodi:nodetypes="ccccccccccccscc" />
    <path
       style="opacity:1;fill:#000000;fill-opacity:1;fill-rule:nonzero;stroke:#000000;stroke-width:3;stroke-linecap:butt;stroke-linejoin:miter;stroke-miterlimit:4;stroke-dasharray:none;stroke-opacity:1"
       id="path4258"
       d="m 569.36896,1293.7955 c 0,0 3.96497,3.0085 5.98296,7.5568 1.19414,3.0269 1.69597,4.5592 2.35262,7.7993 0.54586,3.1696 0.64077,6.3441 0.17811,9.5206 -0.62113,2.9341 -0.83472,2.2638 -3.08103,4.2124 l -4.16582,2.5987 2.16941,-4.3197 c 0.49288,-3.1186 0.44695,-6.2256 -0.0836,-9.3487 -0.61604,-3.1636 -1.2054,-7.0123 -2.78953,-9.7218 -1.61906,-3.0185 -4.27396,-4.8721 -6.73727,-7.3468 1.66819,-0.9169 6.17415,-0.9508 6.17415,-0.9508 z"
       inkscape:connector-curvature="0"
       sodipodi:nodetypes="ccccccccccc" />
    <path
       style="opacity:1;fill:#000000;fill-opacity:1;fill-rule:nonzero;stroke:#000000;stroke-width:3;stroke-linecap:butt;stroke-linejoin:miter;stroke-miterlimit:4;stroke-dasharray:none;stroke-opacity:1"
       id="path4262"
       d="m 569.66419,1327.2421 c 1.73047,2.2745 4.88422,7.5473 5.54243,10.3007 0.49513,2.8462 0.77513,5.7681 0.51939,8.6516 -0.23446,2.2924 -1.40413,4.1814 -2.82778,5.9221 -0.6388,0.8269 -1.3853,1.5127 -2.19795,2.1596 l -9.24512,3.6246 0,0 c 0.90991,-0.5143 1.7089,-1.0373 2.28297,-1.9471 1.51547,-1.446 2.73761,-3.2756 3.10083,-5.3665 0.43943,-2.7559 0.0282,-5.6047 -0.34938,-8.3498 -0.60412,-2.6986 -3.19624,-8.2413 -4.93477,-10.4299 z"
       inkscape:connector-curvature="0"
       sodipodi:nodetypes="cccccccccccc" />
    <path
       style="opacity:1;fill:#000000;fill-opacity:1;fill-rule:nonzero;stroke:#000000;stroke-width:3;stroke-linecap:butt;stroke-linejoin:miter;stroke-miterlimit:4;stroke-dasharray:none;stroke-opacity:1"
       id="path4266"
       d="m 562.90845,1356.6842 c 1.49517,2.7823 0.86738,4.4722 2.47107,7.1928 1.48522,2.5372 1.91779,5.3832 2.1304,8.2634 0.2825,3.2695 0.0491,6.4916 -1.27558,9.5122 -1.3692,3.1013 -4.12956,5.078 -6.72049,7.096 -1.77818,1.3912 -3.57082,2.764 -5.37774,4.1184 l -3.94244,1.5652 0,0 c 1.82325,-1.3355 3.60034,-2.731 5.38865,-4.112 2.55915,-1.9885 5.37964,-3.876 6.79224,-6.9069 1.42169,-2.9244 1.63398,-6.1064 1.37097,-9.3205 -0.19926,-2.8167 -0.58724,-5.6069 -2.03715,-8.0924 -1.60317,-2.7315 -1.14885,-3.0075 -2.68354,-5.778 z"
       inkscape:connector-curvature="0"
       sodipodi:nodetypes="cccccccccccccc" />
    <path
       style="opacity:1;fill:#000000;fill-opacity:1;fill-rule:nonzero;stroke:#000000;stroke-width:3;stroke-linecap:butt;stroke-linejoin:miter;stroke-miterlimit:4;stroke-dasharray:none;stroke-opacity:1"
       id="path4268"
       d="m 390.50464,1368.8484 c 9.46908,0.2654 19.10313,0.1794 28.56001,-0.2366 10.74113,-0.4901 21.49219,-0.647 32.24287,-0.7205 12.6858,-0.6832 25.21338,0.9014 37.69374,2.9634 11.32899,1.8996 22.35217,5.1249 33.14167,9.011 8.41504,3.1049 16.56924,6.868 24.76472,10.5015 3.19462,1.5027 3.63886,2.0276 6.87687,3.4298 l -4.12951,5.3645 0,0 c -3.22279,-1.4113 -6.50151,-2.6836 -9.6844,-4.1861 -8.15689,-3.6621 -16.3128,-7.3616 -24.69986,-10.4715 -10.72774,-3.8763 -21.69605,-7.0787 -32.96832,-8.9463 -12.47377,-2.0194 -24.99224,-3.5103 -37.66098,-2.8149 -10.74665,0.099 -21.4941,0.2585 -32.23135,0.7484 -9.52683,0.4123 -20.03273,0.2664 -28.23197,-1.1749 z"
       inkscape:connector-curvature="0"
       sodipodi:nodetypes="cccccccccccccccc" />
    <path
       style="opacity:1;fill:#000000;fill-opacity:1;fill-rule:nonzero;stroke:#000000;stroke-width:3;stroke-linecap:butt;stroke-linejoin:miter;stroke-miterlimit:4;stroke-dasharray:none;stroke-opacity:1"
       id="path4270"
       d="m 430.16476,1329.8836 c 12.38374,0.032 24.75353,0.7087 37.1121,1.4373 10.9511,0.7556 16.11813,2.3194 27.03413,3.494 9.00192,0.9707 17.96699,2.3872 26.52961,5.3832 5.46018,2.0604 10.76677,4.5304 16.04342,7.0224 6.18049,2.898 13.65912,11.6885 13.65912,11.6885 0,0 -10.07465,-2.5492 -20.96084,-7.5262 -5.25743,-2.4586 -10.52756,-4.928 -15.96341,-6.9663 -8.51052,-2.9226 -17.40701,-4.3225 -26.33825,-5.2765 -10.90544,-1.1276 -16.05466,-2.7175 -26.99047,-3.4768 -12.35304,-0.7411 -20.80035,-1.1074 -33.17981,-1.1013 -4.96706,0.823 -24.9095,3.0458 -28.71804,2.4247 12.16131,-5.4293 20.23071,-7.0282 31.77244,-7.103 z"
       inkscape:connector-curvature="0"
       sodipodi:nodetypes="ccccccccccccc" />
    <path
       style="opacity:1;fill:#000000;fill-opacity:1;fill-rule:nonzero;stroke:#000000;stroke-width:3;stroke-linecap:butt;stroke-linejoin:miter;stroke-miterlimit:4;stroke-dasharray:none;stroke-opacity:1"
       id="path4274"
       d="m 428.29702,1297.0511 c 5.32948,-0.5179 10.61474,-1.3479 15.95991,-1.7348 4.89351,-0.3187 9.79884,-0.3689 14.70096,-0.3938 4.55085,-0.013 8.38746,0.1766 12.93831,0.1836 4.93426,0.5832 11.97737,0.7233 16.84058,1.5973 5.53907,0.9738 9.51853,1.6405 14.95058,3.0697 6.08914,1.8568 12.16556,3.7147 18.33057,5.3069 6.12693,1.7578 12.30716,3.3784 18.07911,6.1224 3.21053,1.4619 6.41321,3.0044 9.72649,4.2236 2.3058,1.0119 4.64433,2.0157 6.81665,3.2943 2.42077,1.5956 4.55191,2.6888 6.70539,4.0576 1.56018,0.811 3.9009,3.1855 3.9009,3.1855 l -7.11924,4.5824 c -3.49476,-3.1839 -5.05421,-4.1452 -10.61732,-7.1883 -2.17954,-1.1934 -4.43158,-2.2636 -6.73626,-3.1928 -3.2877,-1.3038 -6.50712,-2.7984 -9.69889,-4.3185 -5.73987,-2.6809 -11.87009,-4.3022 -17.95266,-6.017 -6.17185,-1.5858 -12.24073,-3.4896 -18.34815,-5.3009 -5.42008,-1.4363 -10.83584,-2.9283 -16.36825,-3.879 -4.84605,-0.7833 -9.71578,-0.8772 -14.6183,-0.7656 -4.55105,0 -9.10211,-0.012 -13.65315,0 -4.88449,0.033 -9.77253,0.083 -14.64702,0.4282 -5.33515,0.4337 -10.62108,1.2381 -15.94483,1.7744 -4.64922,0.6026 -16.0484,0.015 -20.70399,0.5679 l 14.30208,-6.5443 c 4.3568,3.3131 8.72769,1.4911 13.15653,0.9392 z"
       inkscape:connector-curvature="0"
       sodipodi:nodetypes="cccccccccccccccccccccccccc" />
    <path
       style="opacity:1;fill:#000000;fill-opacity:1;fill-rule:nonzero;stroke:#000000;stroke-width:3;stroke-linecap:butt;stroke-linejoin:miter;stroke-miterlimit:4;stroke-dasharray:none;stroke-opacity:1"
       id="path4286"
       d="m 425.25644,1262.7675 c 4.10606,-0.5469 9.83621,-0.3852 13.97017,-0.6327 4.08963,-0.205 8.18467,-0.2403 12.27852,-0.2578 3.5846,-0.01 7.16921,-10e-4 10.75381,7e-4 3.12271,0 6.24542,5e-4 9.36813,0 3.88715,0 7.7743,0 11.66145,0 3.69812,-0.07 7.35508,-0.078 11.01969,0.4272 3.54294,0.2706 6.7557,1.5771 9.92402,3.0713 3.07982,1.4301 6.24555,2.6595 9.36142,4.005 3.34576,1.313 6.76495,2.4255 10.14847,3.6382 3.00073,1.1509 6.10698,1.9414 9.1711,2.885 2.70095,0.6785 5.29092,1.6863 7.90706,2.6328 2.74893,0.9317 5.38796,2.1673 8.08123,3.2541 2.4221,1.2596 4.74021,2.7017 7.16467,3.956 2.36415,1.5884 4.85415,2.9476 7.36986,4.2762 1.27511,0.7337 2.63054,1.6475 3.86932,2.4415 l -3.63325,2.0447 0,0 c -1.2354,-0.776 -2.51855,-1.4417 -3.78664,-2.1626 -2.50765,-1.3405 -4.99695,-2.6992 -7.36841,-4.2732 -2.40571,-1.2638 -4.71961,-2.6907 -7.14287,-3.9221 -2.68349,-1.096 -5.32415,-2.3147 -8.07036,-3.2401 -2.61588,-0.9276 -5.1973,-1.9424 -7.89394,-2.6161 -3.07841,-0.9165 -6.16536,-1.7751 -9.17677,-2.9074 -3.38715,-1.2222 -6.82213,-2.3123 -10.16202,-3.6597 -3.12704,-1.3325 -6.28955,-2.5801 -9.37275,-4.0153 -3.14005,-1.4776 -6.34642,-2.6946 -9.84876,-2.9654 -3.65016,-0.4786 -7.30135,-0.4283 -10.9797,-0.3863 -3.89064,0 -7.78128,0 -11.67193,0 -3.12207,0 -6.24415,-10e-4 -9.36622,0 -3.58258,0 -7.16517,-0.01 -10.74774,0 -4.08691,0.019 -8.17541,0.055 -12.25756,0.272 -4.15004,0.2573 -8.28163,0.6787 -12.41002,1.1708 1.03778,-1.3692 0.25293,-2.6434 1.84002,-3.0408 z"
       inkscape:connector-curvature="0"
       sodipodi:nodetypes="cccccccccccccccccccccccccccccccccc" />
    <path
       style="opacity:1;fill:#000000;fill-opacity:1;fill-rule:nonzero;stroke:#000000;stroke-width:3;stroke-linecap:butt;stroke-linejoin:miter;stroke-miterlimit:4;stroke-dasharray:none;stroke-opacity:1"
       id="path4290"
       d="m 465.57326,1251.8908 c 1.49937,-2.0136 3.10545,-3.9926 5.08201,-5.5548 5.32743,-3.5215 10.50312,-6.2363 16.53263,-7.9068 3.05403,-0.7806 6.20449,-0.9574 9.34067,-1.0557 2.83846,0.058 11.18133,1.3289 11.18133,1.3289 4.89066,0.2924 14.40078,11.5158 16.64538,20.5644 0.79729,2.755 1.13989,5.596 1.34166,8.4471 -0.002,2.0479 -0.46497,4.0105 -1.19315,5.909 l -5.43649,1.3112 c -4.50519,-1.8953 -2.3618,-0.6938 -2.16394,-2.6656 -0.17503,-2.7936 -0.47236,-5.5835 -1.26138,-8.2811 -1.4561,-4.9294 -3.71248,-9.854 -6.58466,-13.8675 -3.83638,-4.6697 -8.36082,-6.517 -12.09933,-6.8378 -2.79251,-0.2832 -5.61468,-0.069 -8.41678,-0.06 -3.0924,0.1343 -6.19496,0.3752 -9.18304,1.2429 -4.06564,1.2515 -15.18263,6.5347 0.53325,-1.7601 -9.23615,3.6308 -14.03243,8.4909 -17.09538,14.5102 z"
       inkscape:connector-curvature="0"
       sodipodi:nodetypes="cccccccccccccccccc" />
    <path
       style="opacity:1;fill:#000000;fill-opacity:1;fill-rule:nonzero;stroke:#000000;stroke-width:3.94888663;stroke-linecap:butt;stroke-linejoin:miter;stroke-miterlimit:4;stroke-dasharray:none;stroke-opacity:1"
       id="path4294"
       d="m 492.8872,1240.4948 c 0.50228,-5.8623 1.32495,-11.6033 1.94273,-17.4243 0.38418,-5.4303 0.76293,-10.8256 1.32048,-16.2084 0.41486,-5.5916 0.89206,-11.1544 1.38967,-16.7247 0.92084,-7.3645 1.50176,-14.8387 2.29495,-22.2484 0.92208,-8.0988 0.96433,-16.3871 1.40594,-24.5858 0.67421,-8.4638 1.004,-16.984 1.19176,-25.5239 0.37791,-8.051 0.97476,-16.0505 1.26249,-24.1166 0.15257,-9.4758 1.17802,-18.7934 1.90005,-28.1552 0.53674,-10.8205 1.43543,-21.5471 2.33565,-32.2812 0.99141,-12.6326 1.29524,-25.3902 1.92056,-38.09138 0.84447,-12.87258 2.31682,-25.55495 3.14481,-38.4348 0.48522,-13.35383 1.14387,-26.68582 1.59878,-40.04458 0.39948,-12.90164 0.47711,-25.8251 0.51754,-38.74395 -0.21448,-9.6991 0.31714,-19.33357 0.78489,-28.97681 0.47147,-8.07405 0.33953,-16.20879 0.68953,-24.2916 0.59163,-7.54705 0.77305,-15.17131 1.24752,-22.73739 0.64949,-7.43683 1.03143,-14.9256 1.24138,-22.44276 0.17354,-7.40852 0.16873,-14.82583 0.18403,-22.23961 0.0295,-9.58097 0.0147,-19.16197 0.0118,-28.74299 0.48105,-12.17179 0.94576,-24.33384 1.19011,-36.53209 0.63444,-17.3028 1.13484,-34.61516 1.40888,-51.9497 0.15615,-10.75022 0.17191,-21.50463 0.1568,-32.25784 -0.002,-1.06261 -0.004,-2.12521 -0.007,-3.18781 l 12.2346,-11.40619 0,0 c -0.004,1.07002 -0.007,2.14005 -0.0108,3.21006 -0.0556,10.84195 -0.18025,21.68212 -0.3557,32.5198 -0.31567,17.32194 -0.79325,34.62784 -1.38247,51.92598 -0.17334,12.13402 -0.50271,24.24667 -1.07986,36.34072 0.003,9.5695 -0.002,19.13892 0.03,28.70829 0.008,7.44432 0.0128,14.89103 -0.13315,22.33172 -0.20709,7.57156 -0.52039,15.136 -1.21117,22.61941 -0.54956,7.52643 -0.60355,15.15561 -1.27005,22.66533 -0.4516,8.07333 -0.23517,16.22249 -0.69675,24.30293 -0.5027,9.60223 -1.12033,19.19487 -0.91839,28.86303 -0.063,12.97531 -0.1631,25.95498 -0.54342,38.91437 -0.42277,13.3841 -1.11946,26.72818 -1.5184,40.11379 -0.74835,12.89806 -2.32376,25.54095 -3.17904,38.40876 -0.64034,12.73555 -0.94158,25.52131 -1.8661,38.20581 -0.87046,10.7218 -1.79091,21.4271 -2.31114,32.2292 -0.70444,9.2833 -1.69391,18.5344 -1.87185,27.9178 -0.27066,8.0679 -0.79643,16.0698 -1.31833,24.0936 -0.1553,8.5796 -0.39775,17.1623 -1.12151,25.6558 -0.52299,8.2391 -0.47386,16.5933 -1.34306,24.7667 -0.77666,7.3794 -1.35729,14.8152 -2.29226,22.1362 -0.44083,5.5977 -1.01854,11.1406 -1.33775,16.7694 -0.54564,5.3987 -1.07786,10.7475 -1.33816,16.2254 -0.57699,5.8218 -3.51978,6.4518 -3.88666,12.3388 l -10.41251,16.0851 z"
       inkscape:connector-curvature="0"
       sodipodi:nodetypes="ccccccccccccccccccccccccccccccccccccccccccccccccccc" />
  </g>
  <g
     inkscape:groupmode="layer"
     id="layer6"
     inkscape:label="base shading"
     style="display:inline"
     transform="translate(0,-620.07881)"
     sodipodi:insensitive="true">
    <path
       style="fill:#bbbbbb;fill-opacity:1;fill-rule:evenodd;stroke:none;stroke-width:1px;stroke-linecap:butt;stroke-linejoin:miter;stroke-opacity:1"
       d="m 382.85702,1363.1269 c 10,-6.4286 78.64322,-17.1577 99.3575,-11.4434 20.71429,5.7143 65.6425,22.872 67.07107,27.872 1.42857,5 3.57143,8.5714 -3.57143,3.5714 -7.14285,-5 -68.57143,-22.1428 -82.14285,-21.4286 -13.57143,0.7143 -52.85715,2.8572 -61.42858,2.8572 -8.57142,0 -19.28571,-1.4286 -19.28571,-1.4286 z"
       id="path4927"
       inkscape:connector-curvature="0"
       sodipodi:nodetypes="csssssc" />
    <path
       inkscape:connector-curvature="0"
       id="path4929"
       d="m 394.28559,1323.1269 c 10,-6.4286 84.70414,-12.612 105.41842,-6.8977 20.71429,5.7143 47.96483,20.8517 49.3934,25.8517 1.42857,5 8.62219,10.0866 1.47933,5.0866 -7.14285,-5 -68.57143,-22.6479 -82.14285,-21.9336 -13.57143,0.7143 -46.29116,-0.6784 -54.86259,-0.6784 -8.57142,0 -19.28571,-1.4286 -19.28571,-1.4286 z"
       style="fill:#bbbbbb;fill-opacity:1;fill-rule:evenodd;stroke:none;stroke-width:1px;stroke-linecap:butt;stroke-linejoin:miter;stroke-opacity:1"
       sodipodi:nodetypes="csssssc" />
    <path
       style="fill:#bbbbbb;fill-opacity:1;fill-rule:evenodd;stroke:none;stroke-width:1px;stroke-linecap:butt;stroke-linejoin:miter;stroke-opacity:1"
       d="m 419.00459,1286.4025 c 10,-6.4286 69.04678,-9.0765 89.76106,-3.3622 20.71429,5.7142 42.91406,11.2552 44.34263,16.2552 1.42857,5 13.67296,18.673 6.5301,13.673 -7.14285,-5 -55.43945,-24.6683 -69.01087,-23.954 -13.57143,0.7143 -51.34192,-0.1733 -59.91335,-0.1733 -8.57142,0 -11.70957,-2.4387 -11.70957,-2.4387 z"
       id="path4931"
       inkscape:connector-curvature="0"
       sodipodi:nodetypes="csssssc" />
    <path
       sodipodi:nodetypes="cccc"
       inkscape:connector-curvature="0"
       id="path4933"
       d="m 475.38496,1251.3124 c 22.65773,-2.3845 17.26514,-2.7761 34.22099,13.132 -21.14758,-9.8924 -38.22571,-6.4076 -38.22571,-6.4076 -4.58701,-4.0164 4.00472,-6.7244 4.00472,-6.7244 z"
       style="fill:#bbbbbb;fill-opacity:1;fill-rule:evenodd;stroke:none;stroke-width:1px;stroke-linecap:butt;stroke-linejoin:miter;stroke-opacity:1" />
  </g>
  <g
     inkscape:groupmode="layer"
     id="layer4"
     inkscape:label="lambda"
     transform="translate(0,-620.07881)"
     sodipodi:insensitive="true">
    <path
       style="fill:#000000;fill-opacity:1;fill-rule:evenodd;stroke:#000000;stroke-width:1px;stroke-linecap:butt;stroke-linejoin:miter;stroke-opacity:1"
       d="m 401.806,1444.132 c 0,0 65.72119,-49.3854 87.94455,-48.3753 22.22335,1.0102 36.24634,9.6492 20.67223,63.5889 -15.93836,55.2012 -70.17351,193.7394 -77.47537,258.0073 -8.80602,77.5069 6.9799,132.1857 34.94744,132.1461 35.06769,-0.05 69.57797,-49.1613 69.57797,-49.1613 0,0 -21.25346,48.4662 -46.17115,68.7621 -10.21193,8.3178 -55.91553,19.9684 -71.06782,-41.6509 -15.15228,-61.6193 11.06074,-201.991 21.97825,-234.294 16.81816,-49.762 43.94909,-121.0432 46.57906,-130.6965 8.2473,-30.272 1.4137,-54.9089 -13.19326,-50.7738 -39.17624,11.0903 -73.7919,32.4474 -73.7919,32.4474 z"
       id="path4297"
       inkscape:connector-curvature="0"
       sodipodi:nodetypes="csssscsssssc" />
    <path
       style="fill:#000000;fill-opacity:1;fill-rule:evenodd;stroke:#000000;stroke-width:1px;stroke-linecap:butt;stroke-linejoin:miter;stroke-opacity:1"
       d="m 432.35194,1609.4181 c -134.28571,122.8571 -212.35206,205.1373 -208.06635,216.5659 4.28572,11.4286 22.02031,20.5051 26.30603,14.7908 4.28571,-5.7143 148.41297,-157.128 155.55583,-162.8422 7.14285,-5.7143 26.20449,-68.5145 26.20449,-68.5145 z"
       id="path4299"
       inkscape:connector-curvature="0"
       sodipodi:nodetypes="csssc" />
    <path
       style="fill:#000000;fill-opacity:1;fill-rule:evenodd;stroke:#000000;stroke-width:1px;stroke-linecap:butt;stroke-linejoin:miter;stroke-opacity:1"
       d="m 491.39817,1370.7221 -22.18768,37.9824 27.17139,-5.8013 15.50869,-26.6982 z"
       id="path4301"
       inkscape:connector-curvature="0" />
  </g>
  <g
     inkscape:groupmode="layer"
     id="layer7"
     inkscape:label="bulb glare"
     transform="translate(0,88.582667)">
    <path
       style="opacity:1;fill:#ffffff;fill-opacity:1;fill-rule:nonzero;stroke:none;stroke-width:3;stroke-linecap:butt;stroke-linejoin:miter;stroke-miterlimit:4;stroke-dasharray:none;stroke-opacity:1"
       id="path4973"
       d="m 182.76407,1091.6688 c -3.02403,9.9846 -7.32053,19.6996 -10.1735,29.7193 -0.94366,3.3142 -1.68373,6.6603 -2.52559,9.9903 -3.35471,17.5358 -2.93671,35.3074 1.52707,52.4906 0.9024,3.4731 2.11454,6.8798 3.17184,10.3198 6.03292,17.2398 14.72591,33.792 25.88722,49.1154 2.28341,3.1349 4.78372,6.1568 7.175,9.2355 9.49858,11.2642 20.06211,21.9446 31.28637,32.0697 37.07029,33.4398 24.78052,23.4275 44.66768,39.2775 8.12446,5.9116 4.16821,3.1654 11.82735,8.2781 -55.22836,-63.6414 -130.36645,-150.9851 -98.06145,-225.204 l -14.78219,-15.2919 z"
       inkscape:connector-curvature="0"
       sodipodi:nodetypes="cccccccsccccc" />
  </g>
</svg>
